<svg xmlns="http://www.w3.org/2000/svg" xmlns:xlink="http://www.w3.org/1999/xlink" xmlns:lucid="lucid" width="800" height="720"><g transform="translate(0 0)" lucid:page-tab-id="xJbtEB~maH9G"><path d="M460 180h240v60H460z" fill="none"/><use xlink:href="#a" transform="matrix(1,0,0,1,460,180) translate(67.5 33.6)"/><path d="M739.07 187.34v3.94c0 1.8-5.76 4.76-16.66 6.46-6.1.93-12.2 1.38-18.4 1.36-22.7 0-35.2-5.15-35.2-7.8v-3.96c0 2.63 12.37 7.8 35.2 7.8 6.54.02 12.02-.37 18.48-1.33 10.83-1.76 16.6-4.66 16.6-6.46z" fill="#004f8d"/><path d="M748 218.57v3.46c-.62 21.46-20.86 38.37-45.14 37.8-23.5-.58-42.24-17.1-42.86-37.8v-3.46h88z" fill-opacity="0"/><path d="M738.78 188.06v4c-1.2 1.74-6.82 4.2-16.4 5.67-6.04.94-12.23 1.38-18.42 1.38-22.7 0-35.16-5.15-35.16-7.77v-4c0 2.62 12.38 7.78 35.16 7.78 6.55.08 12.1-.35 18.5-1.3 9.64-1.45 15.2-3.92 16.46-5.74m.07 58.5c.06-.15.13-.3.13-.52v6.6l-.07.3c-.07.08-.14.22-.2.37v.08l-.22.22-.28.36-.3.3-.48.28-.42.3-.5.36-.55.2-.7.38-.56.3-1 .35-.55.22c-.57.22-1.13.36-1.77.58l-.63.15-1.4.36-.92.22-1.34.3-1.05.2-1.5.3-1.18.14-1.62.3-1.34.14-1.83.14-1.33.15-2.18.14-1.4.15-2.47.07h-5.28c-12.8 0-22.43-1.4-28.83-3.2-4.64-1.46-8.02-3.06-8.37-4.22v-6.32c.35 1.16 3.3 2.62 7.46 4l-.08-.37c10.13 2.75 19.13 3.92 29.75 3.92h5.28l2.53-.08 1.35-.07 2.1-.22 1.34-.07 1.9-.22 1.2-.14 1.75-.22 8-1.74c.65-.22 1.28-.37 1.84-.6l1.54-.57.35-.23.98-.43.35-.22.7-.36.28-.22.57-.44.22-.14.4-.44v-.3l.3-.57z" fill="#004f8d"/><path d="M704 180c6.2-.05 12.37.4 18.48 1.32 10.83 1.7 16.6 4.66 16.6 6.5 0 1.85-5.77 4.7-16.67 6.42-6.1.9-12.2 1.36-18.4 1.33-22.7 0-35.2-5.16-35.2-7.8 0-2.63 12.44-7.77 35.2-7.77z" fill="#0c7cba"/><path d="M721.96 200.53c-.98.18-1.9.24-2.88.43-.5 0-1 .12-1.55.18l-2.67.25c-.64 0-1.27.1-1.83.1l-3.52.2h-.62c-1.4 0-2.8.05-4.3.12h-.9c-13.93 0-28-2.15-34.82-6.2v53.52c.35 1.23 3.73 2.82 8.37 4.23 6.26 1.78 15.97 3.2 28.77 3.2 23.42.05 33.2-4.98 33.2-7.67v-53.64c-3.67 2.2-9.57 4.1-17.24 5.27z" fill="#0c7cba"/><use xlink:href="#b" transform="matrix(1,0,0,1,660,260) translate(4.049999999999997 14.4)"/><path d="M340 140h160v160H340z" stroke="#fff" stroke-width="2" fill="#0c7cba"/><use xlink:href="#c" transform="matrix(1,0,0,1,345,145) translate(40.4 46.19999999999999)"/><use xlink:href="#d" transform="matrix(1,0,0,1,345,145) translate(53.05 67.8)"/><use xlink:href="#e" transform="matrix(1,0,0,1,345,145) translate(44.025 89.4)"/><use xlink:href="#f" transform="matrix(1,0,0,1,345,145) translate(48.55 111)"/><path d="M219.24 220h101.52" stroke="#999" stroke-width="2" fill="none"/><path d="M218.5 224.64L204.24 220l14.26-4.64z" fill="#999"/><path d="M219.5 226l-18.5-6 18.5-6zm-12.03-6l10.03 3.26v-6.52zM335.76 220l-14.26 4.64v-9.28z" fill="#999"/><path d="M339 220l-18.5 6v-12zm-16.5 3.26l10.03-3.26-10.03-3.26z" fill="#999"/><path d="M140 180h260v60H140z" fill="none"/><use xlink:href="#g" transform="matrix(1,0,0,1,140,180) translate(87.5 33.6)"/><path d="M40 140h160v160H40z" stroke="#666" stroke-width="2" fill="#e5e5e5"/><use xlink:href="#h" transform="matrix(1,0,0,1,45,145) translate(48.6 67.8)"/><use xlink:href="#i" transform="matrix(1,0,0,1,45,145) translate(85.45 67.8)"/><use xlink:href="#j" transform="matrix(1,0,0,1,45,145) translate(39.525 89.4)"/><path d="M519.24 220h122.52" stroke="#999" stroke-width="2" fill="none"/><path d="M518.5 224.64L504.24 220l14.26-4.64z" fill="#999"/><path d="M519.5 226l-18.5-6 18.5-6zm-12.03-6l10.03 3.26v-6.52zM656.76 220l-14.26 4.64v-9.28z" fill="#999"/><path d="M660 220l-18.5 6v-12zm-16.5 3.26l10.03-3.26-10.03-3.26z" fill="#999"/><path d="M340 400h160v160H340z" stroke="#fff" stroke-width="2" fill="#0c7cba"/><use xlink:href="#k" transform="matrix(1,0,0,1,345,405) translate(44.025 57)"/><use xlink:href="#l" transform="matrix(1,0,0,1,345,405) translate(41.574999999999996 78.60000000000001)"/><use xlink:href="#m" transform="matrix(1,0,0,1,345,405) translate(27.549999999999997 100.20000000000002)"/><use xlink:href="#n" transform="matrix(1,0,0,1,345,405) translate(76.5 100.20000000000002)"/><path d="M748 533.3v5.47c0 9.94-10.93 20.22-24.25 20.22h-71.5c-13.32 0-24.24-10.3-24.24-20.23v-5.48z" fill="#110f0f"/><path d="M674.2 480c12.35 0 22.8 6.8 27.95 18.07 7.08-4.85 16.8-3.06 21.6 4.1 1.8 2.55 2.64 5.16 2.76 8.22 12.13 1.04 21.5 12.76 21.5 22.1v2.02c0 10-10.93 20.16-24.25 20.16h-71.5c-13.33 0-24.25-10.16-24.25-20.16v-2.02c0-7.77 6.48-18.37 15.48-21v-.88c.12-16.95 13.8-30.7 30.72-30.62z" fill="#666"/><path d="M699.65 544.96c-.94 0-1.75-.34-2.4-1-5.13-5.14-13.38-5.14-18.5 0-1.32 1.33-3.5 1.33-4.82 0-1.32-1.35-1.32-3.52 0-4.86 7.77-7.8 20.36-7.8 28.12 0 1.33 1.34 1.33 3.52 0 4.84-.66.67-1.47 1-2.4 1z" fill="#fff"/><path d="M708.92 535.66c-.97-.02-1.74-.35-2.42-1-10.25-10.28-26.8-10.28-37 0-1.44 1.17-3.6.93-4.77-.54-1.02-1.26-1.02-3-.05-4.26 12.9-12.94 33.74-12.94 46.65 0 1.3 1.35 1.3 3.5-.05 4.85-.62.66-1.45 1-2.36 1z" fill="#fff"/><path d="M718.9 526.43c-.97 0-1.73-.34-2.4-1-15.73-15.84-41.26-15.84-56.97 0-1.38 1.33-3.5 1.33-4.8 0-1.38-1.35-1.38-3.52 0-4.87 18.38-18.5 48.17-18.5 66.56 0 1.36 1.35 1.36 3.52.06 4.86-.7.67-1.5 1-2.47 1z" fill="#fff"/><use xlink:href="#o" transform="matrix(1,0,0,1,628,559) translate(16.599999999999994 14.4)"/><use xlink:href="#p" transform="matrix(1,0,0,1,628,559) translate(74.4 14.4)"/><path d="M748 413.3v5.47c0 9.94-10.93 20.22-24.25 20.22h-71.5c-13.32 0-24.24-10.3-24.24-20.23v-5.48z" fill="#110f0f"/><path d="M674.2 360c12.35 0 22.8 6.8 27.95 18.07 7.08-4.85 16.8-3.06 21.6 4.1 1.8 2.55 2.64 5.16 2.76 8.22 12.13 1.04 21.5 12.76 21.5 22.1v2.02c0 10-10.93 20.16-24.25 20.16h-71.5c-13.33 0-24.25-10.16-24.25-20.16v-2.02c0-7.77 6.48-18.37 15.48-21v-.88c.12-16.95 13.8-30.7 30.72-30.62z" fill="#666"/><path d="M699.65 424.96c-.94 0-1.75-.34-2.4-1-5.13-5.14-13.38-5.14-18.5 0-1.32 1.33-3.5 1.33-4.82 0-1.32-1.35-1.32-3.52 0-4.86 7.77-7.8 20.36-7.8 28.12 0 1.33 1.34 1.33 3.52 0 4.84-.66.67-1.47 1-2.4 1z" fill="#fff"/><path d="M708.92 415.66c-.97-.02-1.74-.35-2.42-1-10.25-10.28-26.8-10.28-37 0-1.44 1.17-3.6.93-4.77-.54-1.02-1.26-1.02-3-.05-4.26 12.9-12.94 33.74-12.94 46.65 0 1.3 1.35 1.3 3.5-.05 4.85-.62.66-1.45 1-2.36 1z" fill="#fff"/><path d="M718.9 406.43c-.97 0-1.73-.34-2.4-1-15.73-15.84-41.26-15.84-56.97 0-1.38 1.33-3.5 1.33-4.8 0-1.38-1.35-1.38-3.52 0-4.87 18.38-18.5 48.17-18.5 66.56 0 1.36 1.35 1.36 3.52.06 4.86-.7.67-1.5 1-2.47 1z" fill="#fff"/><use xlink:href="#q" transform="matrix(1,0,0,1,628,439) translate(9.225000000000001 14.4)"/><use xlink:href="#p" transform="matrix(1,0,0,1,628,439) translate(81.775 14.4)"/><path d="M420 380.76v-61.52" stroke="#999" stroke-width="2" fill="none"/><path d="M420 395.76l-4.64-14.26h9.28z" fill="#999"/><path d="M420 399l-6-18.5h12zm-3.26-16.5l3.26 10.03 3.26-10.03zM424.64 318.5h-9.28l4.64-14.26z" fill="#999"/><path d="M426 319.5h-12l6-18.5zm-9.26-2h6.52L420 307.47z" fill="#999"/><use xlink:href="#r" transform="matrix(1,0,0,1,428,339.2) translate(0.005000000000002558 14.4)"/><path d="M519.24 510.5h45.45v19h45.45" stroke="#999" stroke-width="2" fill="none"/><path d="M518.5 515.14l-14.26-4.64 14.26-4.64z" fill="#999"/><path d="M519.5 516.5l-18.5-6 18.5-6zm-12.03-6l10.03 3.26v-6.52zM625.15 529.5l-14.27 4.64v-9.28z" fill="#999"/><path d="M628.38 529.5l-18.5 6v-12zm-16.5 3.26l10.03-3.26-10.02-3.26z" fill="#999"/><path d="M519.24 447.33h45.45V409.5h45.45" stroke="#999" stroke-width="2" fill="none"/><path d="M518.5 451.97l-14.26-4.64 14.26-4.63z" fill="#999"/><path d="M519.5 453.35l-18.5-6.02 18.5-6zm-12.03-6.02l10.03 3.26v-6.53zM625.15 409.5l-14.27 4.64v-9.28z" fill="#999"/><path d="M628.38 409.5l-18.5 6v-12zm-16.5 3.26l10.03-3.26-10.02-3.26z" fill="#999"/><defs><path d="M101-251c82-7 93 87 43 132L82-64C71-53 59-42 53-27h129V0H18c2-99 128-94 128-182 0-28-16-43-45-43s-46 15-49 41l-32-3c6-41 34-60 81-64" id="s"/><path d="M64 0c3-98 48-159 88-221H18v-27h164v26C143-157 98-101 97 0H64" id="t"/><path d="M101-251c68 0 85 55 85 127S166 4 100 4C33 4 14-52 14-124c0-73 17-127 87-127zm-1 229c47 0 54-49 54-102s-4-102-53-102c-51 0-55 48-55 102 0 53 5 102 54 102" id="u"/><path d="M27 0v-27h64v-190l-56 39v-29l58-41h29v221h61V0H27" id="v"/><path d="M33-154v-36h34v36H33zM33 0v-36h34V0H33" id="w"/><g id="a"><use transform="matrix(0.05,0,0,0.05,0,0)" xlink:href="#s"/><use transform="matrix(0.05,0,0,0.05,10,0)" xlink:href="#t"/><use transform="matrix(0.05,0,0,0.05,20,0)" xlink:href="#u"/><use transform="matrix(0.05,0,0,0.05,30,0)" xlink:href="#v"/><use transform="matrix(0.05,0,0,0.05,40,0)" xlink:href="#t"/><use transform="matrix(0.05,0,0,0.05,50,0)" xlink:href="#w"/><use transform="matrix(0.05,0,0,0.05,55,0)" xlink:href="#s"/><use transform="matrix(0.05,0,0,0.05,65,0)" xlink:href="#t"/><use transform="matrix(0.05,0,0,0.05,75,0)" xlink:href="#u"/><use transform="matrix(0.05,0,0,0.05,85,0)" xlink:href="#v"/><use transform="matrix(0.05,0,0,0.05,95,0)" xlink:href="#t"/></g><path d="M210-169c-67 3-38 105-44 169h-31v-121c0-29-5-50-35-48C34-165 62-65 56 0H25l-1-190h30c1 10-1 24 2 32 10-44 99-50 107 0 11-21 27-35 58-36 85-2 47 119 55 194h-31v-121c0-29-5-49-35-48" id="x"/><path d="M100-194c62-1 85 37 85 99 1 63-27 99-86 99S16-35 15-95c0-66 28-99 85-99zM99-20c44 1 53-31 53-75 0-43-8-75-51-75s-53 32-53 75 10 74 51 75" id="y"/><path d="M117-194c89-4 53 116 60 194h-32v-121c0-31-8-49-39-48C34-167 62-67 57 0H25l-1-190h30c1 10-1 24 2 32 11-22 29-35 61-36" id="z"/><path d="M177-190C167-65 218 103 67 71c-23-6-38-20-44-43l32-5c15 47 100 32 89-28v-30C133-14 115 1 83 1 29 1 15-40 15-95c0-56 16-97 71-98 29-1 48 16 59 35 1-10 0-23 2-32h30zM94-22c36 0 50-32 50-73 0-42-14-75-50-75-39 0-46 34-46 75s6 73 46 73" id="A"/><path d="M30-248c118-7 216 8 213 122C240-48 200 0 122 0H30v-248zM63-27c89 8 146-16 146-99s-60-101-146-95v194" id="B"/><path d="M160-131c35 5 61 23 61 61C221 17 115-2 30 0v-248c76 3 177-17 177 60 0 33-19 50-47 57zm-97-11c50-1 110 9 110-42 0-47-63-36-110-37v79zm0 115c55-2 124 14 124-45 0-56-70-42-124-44v89" id="C"/><g id="b"><use transform="matrix(0.05,0,0,0.05,0,0)" xlink:href="#x"/><use transform="matrix(0.05,0,0,0.05,14.950000000000001,0)" xlink:href="#y"/><use transform="matrix(0.05,0,0,0.05,24.950000000000003,0)" xlink:href="#z"/><use transform="matrix(0.05,0,0,0.05,34.95,0)" xlink:href="#A"/><use transform="matrix(0.05,0,0,0.05,44.95,0)" xlink:href="#y"/><use transform="matrix(0.05,0,0,0.05,54.95,0)" xlink:href="#B"/><use transform="matrix(0.05,0,0,0.05,67.9,0)" xlink:href="#C"/></g><path fill="#fff" d="M63-220v92h138v28H63V0H30v-248h175v28H63" id="D"/><path fill="#fff" d="M33 0v-248h34V0H33" id="E"/><path fill="#fff" d="M266 0h-40l-56-210L115 0H75L2-248h35L96-30l15-64 43-154h32l59 218 59-218h35" id="F"/><path fill="#fff" d="M205 0l-28-72H64L36 0H1l101-248h38L239 0h-34zm-38-99l-47-123c-12 45-31 82-46 123h93" id="G"/><path fill="#fff" d="M233-177c-1 41-23 64-60 70L243 0h-38l-65-103H63V0H30v-248c88 3 205-21 203 71zM63-129c60-2 137 13 137-47 0-61-80-42-137-45v92" id="H"/><path fill="#fff" d="M30 0v-248h187v28H63v79h144v27H63v87h162V0H30" id="I"/><g id="c"><use transform="matrix(0.05,0,0,0.05,0,0)" xlink:href="#D"/><use transform="matrix(0.05,0,0,0.05,10.950000000000001,0)" xlink:href="#E"/><use transform="matrix(0.05,0,0,0.05,15.950000000000001,0)" xlink:href="#F"/><use transform="matrix(0.05,0,0,0.05,32.25,0)" xlink:href="#G"/><use transform="matrix(0.05,0,0,0.05,44.25,0)" xlink:href="#H"/><use transform="matrix(0.05,0,0,0.05,57.2,0)" xlink:href="#I"/></g><path fill="#fff" d="M140-251c81 0 123 46 123 126C263-46 219 4 140 4 59 4 17-45 17-125s42-126 123-126zm0 227c63 0 89-41 89-101s-29-99-89-99c-61 0-89 39-89 99S79-25 140-24" id="J"/><path fill="#fff" d="M114-163C36-179 61-72 57 0H25l-1-190h30c1 12-1 29 2 39 6-27 23-49 58-41v29" id="K"/><path fill="#fff" d="M24-231v-30h32v30H24zM24 0v-190h32V0H24" id="L"/><path fill="#fff" d="M100-194c62-1 85 37 85 99 1 63-27 99-86 99S16-35 15-95c0-66 28-99 85-99zM99-20c44 1 53-31 53-75 0-43-8-75-51-75s-53 32-53 75 10 74 51 75" id="M"/><path fill="#fff" d="M117-194c89-4 53 116 60 194h-32v-121c0-31-8-49-39-48C34-167 62-67 57 0H25l-1-190h30c1 10-1 24 2 32 11-22 29-35 61-36" id="N"/><g id="d"><use transform="matrix(0.05,0,0,0.05,0,0)" xlink:href="#J"/><use transform="matrix(0.05,0,0,0.05,14,0)" xlink:href="#K"/><use transform="matrix(0.05,0,0,0.05,19.95,0)" xlink:href="#L"/><use transform="matrix(0.05,0,0,0.05,23.9,0)" xlink:href="#M"/><use transform="matrix(0.05,0,0,0.05,33.9,0)" xlink:href="#N"/></g><path fill="#fff" d="M212-179c-10-28-35-45-73-45-59 0-87 40-87 99 0 60 29 101 89 101 43 0 62-24 78-52l27 14C228-24 195 4 139 4 59 4 22-46 18-125c-6-104 99-153 187-111 19 9 31 26 39 46" id="O"/><path fill="#fff" d="M59-47c-2 24 18 29 38 22v24C64 9 27 4 27-40v-127H5v-23h24l9-43h21v43h35v23H59v120" id="P"/><path fill="#fff" d="M100-194c63 0 86 42 84 106H49c0 40 14 67 53 68 26 1 43-12 49-29l28 8c-11 28-37 45-77 45C44 4 14-33 15-96c1-61 26-98 85-98zm52 81c6-60-76-77-97-28-3 7-6 17-6 28h103" id="Q"/><path fill="#fff" d="M141 0L90-78 38 0H4l68-98-65-92h35l48 74 47-74h35l-64 92 68 98h-35" id="R"/><g id="e"><use transform="matrix(0.05,0,0,0.05,0,0)" xlink:href="#O"/><use transform="matrix(0.05,0,0,0.05,12.950000000000001,0)" xlink:href="#M"/><use transform="matrix(0.05,0,0,0.05,22.950000000000003,0)" xlink:href="#N"/><use transform="matrix(0.05,0,0,0.05,32.95,0)" xlink:href="#P"/><use transform="matrix(0.05,0,0,0.05,37.95,0)" xlink:href="#Q"/><use transform="matrix(0.05,0,0,0.05,47.95,0)" xlink:href="#R"/><use transform="matrix(0.05,0,0,0.05,56.95,0)" xlink:href="#P"/></g><path fill="#fff" d="M160-131c35 5 61 23 61 61C221 17 115-2 30 0v-248c76 3 177-17 177 60 0 33-19 50-47 57zm-97-11c50-1 110 9 110-42 0-47-63-36-110-37v79zm0 115c55-2 124 14 124-45 0-56-70-42-124-44v89" id="S"/><path fill="#fff" d="M143 0L79-87 56-68V0H24v-261h32v163l83-92h37l-77 82L181 0h-38" id="T"/><g id="f"><use transform="matrix(0.05,0,0,0.05,0,0)" xlink:href="#S"/><use transform="matrix(0.05,0,0,0.05,12,0)" xlink:href="#K"/><use transform="matrix(0.05,0,0,0.05,17.95,0)" xlink:href="#M"/><use transform="matrix(0.05,0,0,0.05,27.950000000000003,0)" xlink:href="#T"/><use transform="matrix(0.05,0,0,0.05,36.95,0)" xlink:href="#Q"/><use transform="matrix(0.05,0,0,0.05,46.95,0)" xlink:href="#K"/></g><path d="M110-160c48 1 74 30 74 79 0 53-28 85-80 85-65 0-83-55-86-122-5-90 50-162 133-122 14 7 22 21 27 39l-31 6c-5-40-67-38-82-6-9 19-15 44-15 74 11-20 30-34 60-33zm-7 138c34 0 49-23 49-58s-16-56-50-56c-29 0-50 16-49 49 1 36 15 65 50 65" id="U"/><g id="g"><use transform="matrix(0.05,0,0,0.05,0,0)" xlink:href="#v"/><use transform="matrix(0.05,0,0,0.05,10,0)" xlink:href="#u"/><use transform="matrix(0.05,0,0,0.05,20,0)" xlink:href="#s"/><use transform="matrix(0.05,0,0,0.05,30,0)" xlink:href="#U"/><use transform="matrix(0.05,0,0,0.05,40,0)" xlink:href="#w"/><use transform="matrix(0.05,0,0,0.05,45,0)" xlink:href="#v"/><use transform="matrix(0.05,0,0,0.05,55,0)" xlink:href="#u"/><use transform="matrix(0.05,0,0,0.05,65,0)" xlink:href="#s"/><use transform="matrix(0.05,0,0,0.05,75,0)" xlink:href="#U"/></g><path fill="#333" d="M96-169c-40 0-48 33-48 73s9 75 48 75c24 0 41-14 43-38l32 2c-6 37-31 61-74 61-59 0-76-41-82-99-10-93 101-131 147-64 4 7 5 14 7 22l-32 3c-4-21-16-35-41-35" id="V"/><path fill="#333" d="M232-93c-1 65-40 97-104 97C67 4 28-28 28-90v-158h33c8 89-33 224 67 224 102 0 64-133 71-224h33v155" id="W"/><path fill="#333" d="M114-163C36-179 61-72 57 0H25l-1-190h30c1 12-1 29 2 39 6-27 23-49 58-41v29" id="X"/><path fill="#333" d="M24 0v-261h32V0H24" id="Y"/><g id="h"><use transform="matrix(0.05,0,0,0.05,0,0)" xlink:href="#V"/><use transform="matrix(0.05,0,0,0.05,9,0)" xlink:href="#W"/><use transform="matrix(0.05,0,0,0.05,21.950000000000003,0)" xlink:href="#X"/><use transform="matrix(0.05,0,0,0.05,27.900000000000002,0)" xlink:href="#Y"/></g><path fill="#333" d="M100-194c62-1 85 37 85 99 1 63-27 99-86 99S16-35 15-95c0-66 28-99 85-99zM99-20c44 1 53-31 53-75 0-43-8-75-51-75s-53 32-53 75 10 74 51 75" id="Z"/><g id="i"><use transform="matrix(0.05,0,0,0.05,0,0)" xlink:href="#Z"/><use transform="matrix(0.05,0,0,0.05,10,0)" xlink:href="#X"/></g><path fill="#333" d="M30-248c87 1 191-15 191 75 0 78-77 80-158 76V0H30v-248zm33 125c57 0 124 11 124-50 0-59-68-47-124-48v98" id="aa"/><path fill="#333" d="M135-143c-3-34-86-38-87 0 15 53 115 12 119 90S17 21 10-45l28-5c4 36 97 45 98 0-10-56-113-15-118-90-4-57 82-63 122-42 12 7 21 19 24 35" id="ab"/><path fill="#333" d="M59-47c-2 24 18 29 38 22v24C64 9 27 4 27-40v-127H5v-23h24l9-43h21v43h35v23H59v120" id="ac"/><path fill="#333" d="M210-169c-67 3-38 105-44 169h-31v-121c0-29-5-50-35-48C34-165 62-65 56 0H25l-1-190h30c1 10-1 24 2 32 10-44 99-50 107 0 11-21 27-35 58-36 85-2 47 119 55 194h-31v-121c0-29-5-49-35-48" id="ad"/><path fill="#333" d="M141-36C126-15 110 5 73 4 37 3 15-17 15-53c-1-64 63-63 125-63 3-35-9-54-41-54-24 1-41 7-42 31l-33-3c5-37 33-52 76-52 45 0 72 20 72 64v82c-1 20 7 32 28 27v20c-31 9-61-2-59-35zM48-53c0 20 12 33 32 33 41-3 63-29 60-74-43 2-92-5-92 41" id="ae"/><path fill="#333" d="M117-194c89-4 53 116 60 194h-32v-121c0-31-8-49-39-48C34-167 62-67 57 0H25l-1-190h30c1 10-1 24 2 32 11-22 29-35 61-36" id="af"/><g id="j"><use transform="matrix(0.05,0,0,0.05,0,0)" xlink:href="#aa"/><use transform="matrix(0.05,0,0,0.05,12,0)" xlink:href="#Z"/><use transform="matrix(0.05,0,0,0.05,22,0)" xlink:href="#ab"/><use transform="matrix(0.05,0,0,0.05,31,0)" xlink:href="#ac"/><use transform="matrix(0.05,0,0,0.05,36,0)" xlink:href="#ad"/><use transform="matrix(0.05,0,0,0.05,50.95,0)" xlink:href="#ae"/><use transform="matrix(0.05,0,0,0.05,60.95,0)" xlink:href="#af"/></g><g id="k"><use transform="matrix(0.05,0,0,0.05,0,0)" xlink:href="#O"/><use transform="matrix(0.05,0,0,0.05,12.950000000000001,0)" xlink:href="#M"/><use transform="matrix(0.05,0,0,0.05,22.950000000000003,0)" xlink:href="#N"/><use transform="matrix(0.05,0,0,0.05,32.95,0)" xlink:href="#P"/><use transform="matrix(0.05,0,0,0.05,37.95,0)" xlink:href="#Q"/><use transform="matrix(0.05,0,0,0.05,47.95,0)" xlink:href="#R"/><use transform="matrix(0.05,0,0,0.05,56.95,0)" xlink:href="#P"/></g><path fill="#fff" d="M30-248c87 1 191-15 191 75 0 78-77 80-158 76V0H30v-248zm33 125c57 0 124 11 124-50 0-59-68-47-124-48v98" id="ag"/><path fill="#fff" d="M108 0H70L1-190h34L89-25l56-165h34" id="ah"/><path fill="#fff" d="M85-194c31 0 48 13 60 33l-1-100h32l1 261h-30c-2-10 0-23-3-31C134-8 116 4 85 4 32 4 16-35 15-94c0-66 23-100 70-100zm9 24c-40 0-46 34-46 75 0 40 6 74 45 74 42 0 51-32 51-76 0-42-9-74-50-73" id="ai"/><g id="l"><use transform="matrix(0.05,0,0,0.05,0,0)" xlink:href="#ag"/><use transform="matrix(0.05,0,0,0.05,12,0)" xlink:href="#K"/><use transform="matrix(0.05,0,0,0.05,17.95,0)" xlink:href="#M"/><use transform="matrix(0.05,0,0,0.05,27.950000000000003,0)" xlink:href="#ah"/><use transform="matrix(0.05,0,0,0.05,36.95,0)" xlink:href="#L"/><use transform="matrix(0.05,0,0,0.05,40.900000000000006,0)" xlink:href="#ai"/><use transform="matrix(0.05,0,0,0.05,50.900000000000006,0)" xlink:href="#Q"/><use transform="matrix(0.05,0,0,0.05,60.900000000000006,0)" xlink:href="#K"/></g><path fill="#fff" d="M190 0L58-211 59 0H30v-248h39L202-35l-2-213h31V0h-41" id="aj"/><path fill="#fff" d="M143 4C61 4 22-44 18-125c-5-107 100-154 193-111 17 8 29 25 37 43l-32 9c-13-25-37-40-76-40-61 0-88 39-88 99 0 61 29 100 91 101 35 0 62-11 79-27v-45h-74v-28h105v86C228-13 192 4 143 4" id="ak"/><path fill="#fff" d="M185-189c-5-48-123-54-124 2 14 75 158 14 163 119 3 78-121 87-175 55-17-10-28-26-33-46l33-7c5 56 141 63 141-1 0-78-155-14-162-118-5-82 145-84 179-34 5 7 8 16 11 25" id="al"/><g id="m"><use transform="matrix(0.05,0,0,0.05,0,0)" xlink:href="#aj"/><use transform="matrix(0.05,0,0,0.05,12.950000000000001,0)" xlink:href="#ak"/><use transform="matrix(0.05,0,0,0.05,26.950000000000003,0)" xlink:href="#al"/><use transform="matrix(0.05,0,0,0.05,38.95,0)" xlink:href="#E"/></g><path fill="#fff" d="M179-190L93 31C79 59 56 82 12 73V49c39 6 53-20 64-50L1-190h34L92-34l54-156h33" id="am"/><g id="n"><use transform="matrix(0.05,0,0,0.05,0,0)" xlink:href="#ag"/><use transform="matrix(0.05,0,0,0.05,12,0)" xlink:href="#K"/><use transform="matrix(0.05,0,0,0.05,17.95,0)" xlink:href="#M"/><use transform="matrix(0.05,0,0,0.05,27.950000000000003,0)" xlink:href="#R"/><use transform="matrix(0.05,0,0,0.05,36.95,0)" xlink:href="#am"/></g><path d="M127-220V0H93v-220H8v-28h204v28h-85" id="an"/><path d="M206 0h-36l-40-164L89 0H53L-1-190h32L70-26l43-164h34l41 164 42-164h31" id="ao"/><path d="M24-231v-30h32v30H24zM24 0v-190h32V0H24" id="ap"/><path d="M59-47c-2 24 18 29 38 22v24C64 9 27 4 27-40v-127H5v-23h24l9-43h21v43h35v23H59v120" id="aq"/><path d="M100-194c63 0 86 42 84 106H49c0 40 14 67 53 68 26 1 43-12 49-29l28 8c-11 28-37 45-77 45C44 4 14-33 15-96c1-61 26-98 85-98zm52 81c6-60-76-77-97-28-3 7-6 17-6 28h103" id="ar"/><path d="M114-163C36-179 61-72 57 0H25l-1-190h30c1 12-1 29 2 39 6-27 23-49 58-41v29" id="as"/><g id="o"><use transform="matrix(0.05,0,0,0.05,0,0)" xlink:href="#an"/><use transform="matrix(0.05,0,0,0.05,9.950000000000001,0)" xlink:href="#ao"/><use transform="matrix(0.05,0,0,0.05,22.900000000000002,0)" xlink:href="#ap"/><use transform="matrix(0.05,0,0,0.05,26.85,0)" xlink:href="#aq"/><use transform="matrix(0.05,0,0,0.05,31.85,0)" xlink:href="#aq"/><use transform="matrix(0.05,0,0,0.05,36.85,0)" xlink:href="#ar"/><use transform="matrix(0.05,0,0,0.05,46.85,0)" xlink:href="#as"/></g><path d="M205 0l-28-72H64L36 0H1l101-248h38L239 0h-34zm-38-99l-47-123c-12 45-31 82-46 123h93" id="at"/><path d="M30-248c87 1 191-15 191 75 0 78-77 80-158 76V0H30v-248zm33 125c57 0 124 11 124-50 0-59-68-47-124-48v98" id="au"/><path d="M33 0v-248h34V0H33" id="av"/><g id="p"><use transform="matrix(0.05,0,0,0.05,0,0)" xlink:href="#at"/><use transform="matrix(0.05,0,0,0.05,12,0)" xlink:href="#au"/><use transform="matrix(0.05,0,0,0.05,24,0)" xlink:href="#av"/></g><path d="M266 0h-40l-56-210L115 0H75L2-248h35L96-30l15-64 43-154h32l59 218 59-218h35" id="aw"/><path d="M141-36C126-15 110 5 73 4 37 3 15-17 15-53c-1-64 63-63 125-63 3-35-9-54-41-54-24 1-41 7-42 31l-33-3c5-37 33-52 76-52 45 0 72 20 72 64v82c-1 20 7 32 28 27v20c-31 9-61-2-59-35zM48-53c0 20 12 33 32 33 41-3 63-29 60-74-43 2-92-5-92 41" id="ax"/><path d="M106-169C34-169 62-67 57 0H25v-261h32l-1 103c12-21 28-36 61-36 89 0 53 116 60 194h-32v-121c2-32-8-49-39-48" id="ay"/><g id="q"><use transform="matrix(0.05,0,0,0.05,0,0)" xlink:href="#aw"/><use transform="matrix(0.05,0,0,0.05,16.599999999999998,0)" xlink:href="#ar"/><use transform="matrix(0.05,0,0,0.05,26.599999999999994,0)" xlink:href="#ax"/><use transform="matrix(0.05,0,0,0.05,36.599999999999994,0)" xlink:href="#aq"/><use transform="matrix(0.05,0,0,0.05,41.599999999999994,0)" xlink:href="#ay"/><use transform="matrix(0.05,0,0,0.05,51.599999999999994,0)" xlink:href="#ar"/><use transform="matrix(0.05,0,0,0.05,61.599999999999994,0)" xlink:href="#as"/></g><path d="M126-127c33 6 58 20 58 59 0 88-139 92-164 29-3-8-5-16-6-25l32-3c6 27 21 44 54 44 32 0 52-15 52-46 0-38-36-46-79-43v-28c39 1 72-4 72-42 0-27-17-43-46-43-28 0-47 15-49 41l-32-3c6-42 35-63 81-64 48-1 79 21 79 65 0 36-21 52-52 59" id="az"/><g id="r"><use transform="matrix(0.05,0,0,0.05,0,0)" xlink:href="#az"/><use transform="matrix(0.05,0,0,0.05,10,0)" xlink:href="#u"/><use transform="matrix(0.05,0,0,0.05,20,0)" xlink:href="#u"/><use transform="matrix(0.05,0,0,0.05,30,0)" xlink:href="#u"/><use transform="matrix(0.05,0,0,0.05,40,0)" xlink:href="#w"/><use transform="matrix(0.05,0,0,0.05,45,0)" xlink:href="#az"/><use transform="matrix(0.05,0,0,0.05,55,0)" xlink:href="#u"/><use transform="matrix(0.05,0,0,0.05,65,0)" xlink:href="#u"/><use transform="matrix(0.05,0,0,0.05,75,0)" xlink:href="#u"/></g></defs></g></svg>