<svg xmlns="http://www.w3.org/2000/svg" xmlns:xlink="http://www.w3.org/1999/xlink" xmlns:lucid="lucid" width="800" height="720"><g transform="translate(0 0)" lucid:page-tab-id="0_0"><path d="M100 520h200v96H100z" stroke="#b2d6ef" stroke-width="2" fill="#b2d6ef"/><use xlink:href="#a" transform="matrix(1,0,0,1,105,525) translate(78.525 46.6)"/><path d="M100 344h200v176H100z" stroke="#fff" stroke-width="2" fill="#fff"/><use xlink:href="#b" transform="matrix(1,0,0,1,105,349) translate(78.525 86.60000000000001)"/><path d="M100 100h200v176H100z" fill="#fff"/><path d="M100 100h200v176H100zM100 140h200" stroke="#3d4752" stroke-width="2" fill="none"/><use xlink:href="#c" transform="matrix(1,0,0,1,110,100) translate(10 28.175)"/><use xlink:href="#d" transform="matrix(1,0,0,1,105,142.5) translate(10 22.675)"/><use xlink:href="#e" transform="matrix(1,0,0,1,105,176.5) translate(10 22.675)"/><use xlink:href="#f" transform="matrix(1,0,0,1,105,210.5) translate(10 22.675)"/><use xlink:href="#g" transform="matrix(1,0,0,1,105,244.5) translate(10 22.675)"/><path d="M500 400h200v176H500z" fill="#fff"/><path d="M500 400h200v176H500zM500 440h200" stroke="#3d4752" stroke-width="2" fill="none"/><use xlink:href="#h" transform="matrix(1,0,0,1,510,400) translate(10 28.175)"/><use xlink:href="#d" transform="matrix(1,0,0,1,505,442.5) translate(10 22.675)"/><use xlink:href="#i" transform="matrix(1,0,0,1,505,476.5) translate(10 22.675)"/><use xlink:href="#j" transform="matrix(1,0,0,1,505,510.5) translate(10 22.675)"/><use xlink:href="#k" transform="matrix(1,0,0,1,505,544.5) translate(10 22.675)"/><path d="M500 100h200v244H500z" fill="#fff"/><path d="M500 100h200v244H500zM500 140h200" stroke="#3d4752" stroke-width="2" fill="none"/><use xlink:href="#l" transform="matrix(1,0,0,1,510,100) translate(10 28.175)"/><use xlink:href="#m" transform="matrix(1,0,0,1,510,100) translate(93.80799999999999 28.175)"/><use xlink:href="#d" transform="matrix(1,0,0,1,505,142.5) translate(10 22.675)"/><use xlink:href="#n" transform="matrix(1,0,0,1,505,176.5) translate(10 22.675)"/><use xlink:href="#i" transform="matrix(1,0,0,1,505,210.5) translate(10 22.675)"/><use xlink:href="#o" transform="matrix(1,0,0,1,505,244.5) translate(10 22.675)"/><use xlink:href="#p" transform="matrix(1,0,0,1,505,278.5) translate(10 22.675)"/><use xlink:href="#q" transform="matrix(1,0,0,1,505,312.5) translate(10 22.675)"/><path d="M301 400.2h99V225.04h99" stroke="#999" stroke-width="2" fill="none"/><path fill="#fff"/><path d="M312 410.2h-2v-20h2z" fill="#999"/><path d="M341 400.2l-.5 3.17-1.43 2.75-2.16 2.16-2.74 1.42-3.16.5-3.16-.5-2.75-1.42-2.17-2.16-1.42-2.75-.5-3.16.5-3.15 1.43-2.75 2.16-2.16 2.74-1.42 3.16-.5 3.16.5 2.75 1.42 2.17 2.16 1.42 2.75.5 3.16z" fill="#fff"/><path d="M334.48 389.76l3.02 1.56 2.4 2.4 1.55 3 .54 3.33-1 .16 1 .17-.55 3.32-1.56 3-2.4 2.4-3.02 1.56-3.48.56-3.48-.56-3.02-1.56-2.4-2.4-1.55-3-.56-3.5.55-3.47 1.56-3.02 2.4-2.38 3.02-1.56 3.48-.56zm-6.32 1.92l-2.47 1.28-1.95 1.94-1.28 2.47-.46 2.84.47 2.85 1.28 2.47 1.94 1.94 2.46 1.28 2.84.46 2.84-.46 2.47-1.28 1.95-1.94 1.28-2.47.46-2.84-.47-2.83-1.28-2.47-1.94-1.94-2.46-1.28-2.84-.46zM499 215.92l-18.2 9.1 18.2 9.12-.9 1.78-21.78-10.9 21.8-10.88z" fill="#999"/><path d="M478.55 225.03l-.5 3.16-1.43 2.74-2.16 2.16-2.75 1.42-3.15.5-3.16-.5-2.75-1.42-2.17-2.16-1.42-2.75-.5-3.17.5-3.16 1.42-2.75 2.17-2.16 2.74-1.42 3.15-.5 3.16.5 2.76 1.42 2.16 2.16 1.42 2.75.5 3.16z" fill="#fff"/><path d="M472.03 214.58l3.03 1.56 2.38 2.4 1.56 3 .54 3.33-1 .16 1 .16-.54 3.3-1.56 3.03-2.38 2.4-3.03 1.55-3.48.56-3.48-.56-3.02-1.56-2.38-2.4-1.57-3-.56-3.5.56-3.47 1.57-3.02 2.38-2.4 3.02-1.55 3.48-.56zm-6.32 1.92l-2.46 1.28-1.94 1.94-1.28 2.47-.45 2.83.45 2.84 1.28 2.47 1.94 1.94 2.47 1.28 2.85.46 2.85-.46 2.46-1.28 1.95-1.94 1.28-2.47.46-2.84-.46-2.84-1.27-2.48-1.94-1.94-2.46-1.28-2.85-.46z" fill="#999"/><path d="M301 156.7h99v34h99" stroke="#999" stroke-width="2" fill="none"/><path fill="#fff"/><path d="M312 166.7h-2v-20h2z" fill="#999"/><path d="M341 156.7l-.5 3.15-1.43 2.75-2.16 2.16-2.74 1.42-3.16.5-3.16-.5-2.75-1.42-2.17-2.16-1.42-2.75-.5-3.16.5-3.17 1.43-2.75 2.16-2.16 2.74-1.42 3.16-.5 3.16.5 2.75 1.42 2.17 2.16 1.42 2.75.5 3.16z" fill="#fff"/><path d="M334.48 146.24l3.02 1.56 2.4 2.4 1.55 3 .54 3.33-1 .16 1 .15-.55 3.32-1.56 3.02-2.4 2.38-3.02 1.56-3.48.56-3.48-.56-3.02-1.56-2.4-2.4-1.55-3-.56-3.5.55-3.47 1.56-3 2.4-2.4 3.02-1.56 3.48-.56zm-6.32 1.92l-2.47 1.28-1.95 1.94-1.28 2.47-.46 2.84.47 2.83 1.28 2.47 1.94 1.94 2.46 1.28 2.84.46 2.84-.46 2.47-1.28 1.95-1.94 1.28-2.47.46-2.84-.47-2.85-1.28-2.47-1.94-1.94-2.46-1.28-2.84-.46zM499 181.58l-18.2 9.1 18.2 9.12-.9 1.78-21.78-10.9 21.8-10.88z" fill="#999"/><path d="M478.55 190.7l-.5 3.15-1.43 2.75-2.16 2.16-2.75 1.42-3.15.5-3.16-.5-2.75-1.42-2.17-2.16-1.42-2.75-.5-3.16.5-3.17 1.42-2.75 2.17-2.16 2.74-1.42 3.15-.5 3.16.5 2.76 1.42 2.16 2.16 1.42 2.75.5 3.16z" fill="#fff"/><path d="M472.03 180.24l3.03 1.56 2.38 2.4 1.56 3 .54 3.33-1 .16 1 .15-.54 3.32-1.56 3.02-2.38 2.38-3.03 1.56-3.48.56-3.48-.56-3.02-1.56-2.38-2.4-1.57-3-.56-3.5.56-3.47 1.57-3 2.38-2.4 3.02-1.56 3.48-.56zm-6.32 1.92l-2.46 1.28-1.94 1.94-1.28 2.47-.45 2.84.45 2.83 1.28 2.47 1.94 1.94 2.47 1.28 2.85.46 2.85-.46 2.46-1.28 1.95-1.94 1.28-2.47.46-2.84-.46-2.85-1.27-2.47-1.94-1.94-2.46-1.28-2.85-.46z" fill="#999"/><path d="M499 456.7h-40V259.36h40" stroke="#999" stroke-width="2" fill="none"/><path fill="#fff"/><path d="M490 466.7h-2v-20h2z" fill="#999"/><path d="M479 456.7l-.5 3.15-1.43 2.75-2.16 2.16-2.74 1.42-3.16.5-3.16-.5-2.75-1.42-2.17-2.16-1.42-2.75-.5-3.16.5-3.17 1.43-2.75 2.16-2.16 2.74-1.42 3.16-.5 3.16.5 2.75 1.42 2.17 2.16 1.42 2.75.5 3.16z" fill="#fff"/><path d="M472.48 446.24l3.02 1.56 2.4 2.4 1.55 3 .54 3.33-1 .16 1 .15-.55 3.32-1.56 3.02-2.4 2.38-3.02 1.56-3.48.56-3.48-.56-3.02-1.56-2.4-2.4-1.55-3-.56-3.5.55-3.47 1.56-3 2.4-2.4 3.02-1.56 3.48-.56zm-6.32 1.92l-2.47 1.28-1.95 1.94-1.28 2.47-.46 2.84.47 2.83 1.28 2.47 1.94 1.94 2.46 1.28 2.84.46 2.84-.46 2.47-1.28 1.95-1.94 1.28-2.47.46-2.84-.47-2.85-1.28-2.47-1.94-1.94-2.46-1.28-2.84-.46zM499 250.26l-18.2 9.1 18.2 9.12-.9 1.78-21.78-10.9 21.8-10.88z" fill="#999"/><path d="M478.55 259.37l-.5 3.16-1.43 2.75-2.16 2.16-2.75 1.42-3.15.5-3.16-.5-2.75-1.42-2.17-2.16-1.42-2.75-.5-3.16.5-3.16 1.42-2.74 2.17-2.16 2.74-1.42 3.15-.5 3.16.5 2.76 1.42 2.16 2.16 1.42 2.75.5 3.17z" fill="#fff"/><path d="M472.03 248.92l3.03 1.56 2.38 2.4 1.56 3 .54 3.33-1 .17 1 .16-.54 3.32-1.56 3.02-2.38 2.4-3.03 1.55-3.48.56-3.48-.56-3.02-1.56-2.38-2.4-1.57-3-.56-3.5.56-3.47 1.57-3.03 2.38-2.4 3.02-1.55 3.48-.56zm-6.32 1.92l-2.46 1.28-1.94 1.94-1.28 2.47-.45 2.84.45 2.84 1.28 2.48 1.94 1.94 2.47 1.28 2.85.46 2.85-.46 2.46-1.28 1.95-1.94 1.28-2.47.46-2.83-.46-2.84-1.27-2.47-1.94-1.94-2.46-1.28-2.85-.46z" fill="#999"/><path d="M100 344h200v272H100z" fill-opacity="0"/><path d="M100 344h200v272H100zM100 384h200" stroke="#3d4752" stroke-width="2" fill="none"/><use xlink:href="#r" transform="matrix(1,0,0,1,110,344) translate(10 28.175)"/><use xlink:href="#s" transform="matrix(1,0,0,1,105,386.5) translate(10 22.675)"/><use xlink:href="#t" transform="matrix(1,0,0,1,105,420.5) translate(10 22.675)"/><use xlink:href="#u" transform="matrix(1,0,0,1,105,454.5) translate(10 22.675)"/><use xlink:href="#v" transform="matrix(1,0,0,1,105,488.5) translate(10 22.675)"/><use xlink:href="#w" transform="matrix(1,0,0,1,105,522.5) translate(0 17.1)"/><use xlink:href="#x" transform="matrix(1,0,0,1,105,522.5) translate(10 17.1)"/><use xlink:href="#w" transform="matrix(1,0,0,1,105,554.5) translate(0 17.1)"/><use xlink:href="#y" transform="matrix(1,0,0,1,105,554.5) translate(10 17.1)"/><use xlink:href="#w" transform="matrix(1,0,0,1,105,586.5) translate(0 17.1)"/><use xlink:href="#z" transform="matrix(1,0,0,1,105,586.5) translate(10 17.1)"/><path d="M99 400.2H59V656h400V491.03h40" stroke="#999" stroke-width="2" fill="none"/><path fill="#fff"/><path d="M90 410.2h-2v-20h2z" fill="#999"/><path d="M79 400.2l-.5 3.17-1.43 2.75-2.16 2.16-2.74 1.42-3.16.5-3.16-.5-2.75-1.42-2.17-2.16-1.42-2.75-.5-3.16.5-3.15 1.43-2.75 2.16-2.16 2.74-1.42 3.16-.5 3.16.5 2.75 1.42 2.17 2.16 1.42 2.75.5 3.16z" fill="#fff"/><path d="M72.48 389.76l3.02 1.56 2.4 2.4 1.55 3 .54 3.33-1 .16 1 .17-.55 3.32-1.56 3-2.4 2.4-3.02 1.56-3.48.56-3.48-.56-3.02-1.56-2.4-2.4-1.55-3-.56-3.5.55-3.47 1.56-3.02 2.4-2.38 3.02-1.56 3.48-.56zm-6.32 1.92l-2.47 1.28-1.95 1.94-1.28 2.47-.46 2.84.47 2.85 1.28 2.47 1.94 1.94 2.46 1.28 2.84.46 2.84-.46 2.47-1.28 1.95-1.94 1.28-2.47.46-2.84-.47-2.83-1.28-2.47-1.94-1.94-2.46-1.28-2.84-.46zM499 481.92l-18.2 9.1 18.2 9.12-.9 1.78-21.78-10.9 21.8-10.88z" fill="#999"/><path d="M478.55 491.03l-.5 3.16-1.43 2.74-2.16 2.16-2.75 1.42-3.15.5-3.16-.5-2.75-1.42-2.17-2.16-1.42-2.75-.5-3.17.5-3.16 1.42-2.75 2.17-2.16 2.74-1.42 3.15-.5 3.16.5 2.76 1.42 2.16 2.16 1.42 2.75.5 3.16z" fill="#fff"/><path d="M472.03 480.58l3.03 1.56 2.38 2.4 1.56 3 .54 3.33-1 .16 1 .16-.54 3.3-1.56 3.03-2.38 2.4-3.03 1.55-3.48.56-3.48-.56-3.02-1.56-2.38-2.4-1.57-3-.56-3.5.56-3.47 1.57-3.02 2.38-2.4 3.02-1.55 3.48-.56zm-6.32 1.92l-2.46 1.28-1.94 1.94-1.28 2.47-.45 2.83.45 2.84 1.28 2.47 1.94 1.94 2.47 1.28 2.85.46 2.85-.46 2.46-1.28 1.95-1.94 1.28-2.47.46-2.84-.46-2.84-1.27-2.48-1.94-1.94-2.46-1.28-2.85-.46z" fill="#999"/><defs><path fill="#b2d6ef" d="M127-220V0H93v-220H8v-28h204v28h-85" id="A"/><path fill="#b2d6ef" d="M100-194c63 0 86 42 84 106H49c0 40 14 67 53 68 26 1 43-12 49-29l28 8c-11 28-37 45-77 45C44 4 14-33 15-96c1-61 26-98 85-98zm52 81c6-60-76-77-97-28-3 7-6 17-6 28h103" id="B"/><path fill="#b2d6ef" d="M141 0L90-78 38 0H4l68-98-65-92h35l48 74 47-74h35l-64 92 68 98h-35" id="C"/><path fill="#b2d6ef" d="M59-47c-2 24 18 29 38 22v24C64 9 27 4 27-40v-127H5v-23h24l9-43h21v43h35v23H59v120" id="D"/><g id="a"><use transform="matrix(0.05,0,0,0.05,0,0)" xlink:href="#A"/><use transform="matrix(0.05,0,0,0.05,8.950000000000001,0)" xlink:href="#B"/><use transform="matrix(0.05,0,0,0.05,18.950000000000003,0)" xlink:href="#C"/><use transform="matrix(0.05,0,0,0.05,27.950000000000003,0)" xlink:href="#D"/></g><path fill="#fff" d="M127-220V0H93v-220H8v-28h204v28h-85" id="E"/><path fill="#fff" d="M100-194c63 0 86 42 84 106H49c0 40 14 67 53 68 26 1 43-12 49-29l28 8c-11 28-37 45-77 45C44 4 14-33 15-96c1-61 26-98 85-98zm52 81c6-60-76-77-97-28-3 7-6 17-6 28h103" id="F"/><path fill="#fff" d="M141 0L90-78 38 0H4l68-98-65-92h35l48 74 47-74h35l-64 92 68 98h-35" id="G"/><path fill="#fff" d="M59-47c-2 24 18 29 38 22v24C64 9 27 4 27-40v-127H5v-23h24l9-43h21v43h35v23H59v120" id="H"/><g id="b"><use transform="matrix(0.05,0,0,0.05,0,0)" xlink:href="#E"/><use transform="matrix(0.05,0,0,0.05,8.950000000000001,0)" xlink:href="#F"/><use transform="matrix(0.05,0,0,0.05,18.950000000000003,0)" xlink:href="#G"/><use transform="matrix(0.05,0,0,0.05,27.950000000000003,0)" xlink:href="#H"/></g><path fill="#3d4752" d="M321-692c143-6 225 50 225 190 0 186-148 226-344 214v225l88 37V0H24v-26l89-37v-566l-88-36v-26zm135 192c0-137-121-141-254-131v278c142 8 254-7 254-147" id="I"/><path fill="#3d4752" d="M316-434c-70 6-120 46-120 120v251l106 37V0H25v-26l88-36v-362l-92-27v-23l175-41v104c31-55 97-121 183-88v151h-26" id="J"/><path fill="#3d4752" d="M276-509c158 0 231 103 231 260 0 153-81 260-233 260C115 11 35-90 35-249c0-153 87-260 241-260zm-1 459c107 0 145-91 145-199s-37-199-145-199-153 91-153 199c0 109 43 199 153 199" id="K"/><path fill="#3d4752" d="M255-509c65 0 107 14 141 47v-197l-94-28v-22c58-14 117-27 174-42v677l83 26v22L396 15c0-21-1-54 0-79-36 39-79 75-151 75C100 11 35-86 35-231c0-155 64-278 220-278zm141 125c-22-39-80-64-135-64-109 0-139 105-139 215 0 100 41 183 141 183 70 0 104-49 133-95v-239" id="L"/><path fill="#3d4752" d="M250 11C150 11 92-32 92-134v-294L5-454v-24l171-40v381c0 54 35 77 87 77 74 0 108-53 145-95v-273l-88-26v-24l168-40v436l83 27v23L408 10v-86c-38 42-83 87-158 87" id="M"/><path fill="#3d4752" d="M173-486c82-41 198-28 258 29v121h-26l-37-87c-26-17-56-25-95-25-109 0-151 95-151 205 0 107 52 191 158 191 55 0 83-24 113-54l47 42c-40 40-91 76-173 75C110 8 35-93 35-243c0-118 57-202 138-243" id="N"/><path fill="#3d4752" d="M337-34c-33 20-79 45-128 45-81 1-119-46-119-127v-315H4v-37l87-30v-131l83-30v161h145v67H173v306c1 40 13 70 55 70 28 0 64-17 80-30" id="O"/><g id="c"><use transform="matrix(0.018,0,0,0.018,0,0)" xlink:href="#I"/><use transform="matrix(0.018,0,0,0.018,10.097999999999999,0)" xlink:href="#J"/><use transform="matrix(0.018,0,0,0.018,17.136,0)" xlink:href="#K"/><use transform="matrix(0.018,0,0,0.018,26.891999999999992,0)" xlink:href="#L"/><use transform="matrix(0.018,0,0,0.018,37.134,0)" xlink:href="#M"/><use transform="matrix(0.018,0,0,0.018,47.681999999999995,0)" xlink:href="#N"/><use transform="matrix(0.018,0,0,0.018,56.05199999999999,0)" xlink:href="#O"/></g><path fill="#3d4752" d="M25-481l177-41v459l83 37V0H31v-26l88-37v-368l-94-27v-23zm200-200c0 37-21 56-62 56-42 0-63-18-63-54 0-37 21-55 63-55 41 0 62 18 62 53" id="P"/><g id="d"><use transform="matrix(0.018,0,0,0.018,0,0)" xlink:href="#P"/><use transform="matrix(0.018,0,0,0.018,5.3999999999999995,0)" xlink:href="#L"/></g><path fill="#3d4752" d="M338-438c-74 0-103 54-140 95v280l78 37V0H26v-26l88-37v-360l-93-27v-23l177-41v91c34-39 85-86 153-86 100 1 162 43 162 145v301l88 37V0H346v-26l83-37v-298c-1-54-38-77-91-77" id="Q"/><path fill="#3d4752" d="M233-514c87 3 156 45 156 132v302l83 27v23L310 12v-71c-35 38-70 69-138 70C85 12 27-46 30-134c4-141 149-158 281-173-1-16 1-41 0-60-1-92-140-105-204-56l-36 86H45c1-38-1-78 1-114 49-38 100-66 187-63zm77 261c-95 7-197 18-199 118-1 55 31 89 86 87 57-2 84-40 113-72v-133" id="R"/><path fill="#3d4752" d="M330-441c-71 2-99 56-135 95v283l83 37V0H27v-26l87-36v-361l-93-27v-23l174-41v90c37-40 87-85 159-85 64 1 125 34 134 93 42-42 86-91 165-93 99-3 146 54 145 151v295l89 37V0H632v-26l82-36v-300c1-48-32-81-80-79-71 4-99 57-137 97l1 281 83 37V0H338v-26l76-36v-299c1-48-37-82-84-80" id="S"/><path fill="#3d4752" d="M252-509c149 0 208 103 203 259H117c-1 108 29 194 135 194 63 0 113-26 147-60l44 43c-48 46-97 84-184 84C102 11 35-91 35-248c0-147 71-261 217-261zm126 200c19-124-147-176-220-93-20 23-30 59-37 93h257" id="T"/><g id="e"><use transform="matrix(0.018,0,0,0.018,0,0)" xlink:href="#Q"/><use transform="matrix(0.018,0,0,0.018,10.998,0)" xlink:href="#R"/><use transform="matrix(0.018,0,0,0.018,19.674,0)" xlink:href="#S"/><use transform="matrix(0.018,0,0,0.018,35.81999999999999,0)" xlink:href="#T"/></g><path fill="#3d4752" d="M324 11c-66 0-101-13-136-46v229l110 33v26H20v-26l88-33v-614l-88-27v-24l168-41v77c37-38 77-75 149-74 145 2 210 98 210 243 0 155-67 277-223 277zm-6-61c110 0 142-104 142-214 0-101-41-181-141-184-65-2-102 52-128 94l1 240c23 39 70 64 126 64" id="U"/><g id="f"><use transform="matrix(0.018,0,0,0.018,0,0)" xlink:href="#U"/><use transform="matrix(0.018,0,0,0.018,10.475999999999999,0)" xlink:href="#J"/><use transform="matrix(0.018,0,0,0.018,17.729999999999997,0)" xlink:href="#P"/><use transform="matrix(0.018,0,0,0.018,23.129999999999995,0)" xlink:href="#N"/><use transform="matrix(0.018,0,0,0.018,31.499999999999993,0)" xlink:href="#T"/></g><path fill="#3d4752" d="M229-509c47 0 105 15 135 34v127h-26l-37-86c-64-27-173-19-165 61 8 84 122 76 177 120 33 26 64 57 62 116-3 100-76 148-174 148C136 11 92-5 50-31v-127h26l36 87c55 34 183 31 177-55-7-93-117-87-177-128-34-23-63-52-61-109 3-102 78-146 178-146" id="V"/><path fill="#3d4752" d="M377-449c-80 7-173 3-259 4l-37 88H55v-156h463C405-364 299-207 180-64c81-5 172-2 258-3l37-88h26V0H40c113-149 219-305 337-449" id="W"/><g id="g"><use transform="matrix(0.018,0,0,0.018,0,0)" xlink:href="#V"/><use transform="matrix(0.018,0,0,0.018,7.6499999999999995,0)" xlink:href="#P"/><use transform="matrix(0.018,0,0,0.018,13.049999999999999,0)" xlink:href="#W"/><use transform="matrix(0.018,0,0,0.018,23.183999999999997,0)" xlink:href="#T"/></g><path fill="#3d4752" d="M270-703c81-2 142 16 187 48v159h-26l-44-113c-29-15-58-27-110-26-74 3-130 32-130 106 0 126 160 125 239 187 44 35 87 78 84 156C466-56 380 8 250 11 165 13 102-9 55-43v-156h26l41 115c30 18 67 27 121 25 77-3 137-36 137-115 0-130-158-131-238-194-44-35-87-78-84-158 5-120 91-174 212-177" id="X"/><path fill="#3d4752" d="M343-438c-73 0-104 54-141 95v280l78 37V0H30v-26l88-37v-600l-93-27v-23l177-41v331c34-39 86-86 154-86 100 1 161 43 161 145v301l88 37V0H350v-26l83-37v-298c-1-54-38-77-90-77" id="Y"/><path fill="#3d4752" d="M25-711l178-41v689l94 37V0H31v-26l88-37v-598l-94-27v-23" id="Z"/><path fill="#3d4752" d="M116-498c-10-162 38-266 193-264h66v148h-26l-37-88c-104-4-119 93-113 204h119v68H198v367l110 37V0H27v-26l88-37v-367H26v-38" id="aa"/><g id="h"><use transform="matrix(0.018,0,0,0.018,0,0)" xlink:href="#X"/><use transform="matrix(0.018,0,0,0.018,9.45,0)" xlink:href="#Y"/><use transform="matrix(0.018,0,0,0.018,20.519999999999996,0)" xlink:href="#T"/><use transform="matrix(0.018,0,0,0.018,29.429999999999996,0)" xlink:href="#Z"/><use transform="matrix(0.018,0,0,0.018,34.955999999999996,0)" xlink:href="#aa"/></g><g id="i"><use transform="matrix(0.018,0,0,0.018,0,0)" xlink:href="#V"/><use transform="matrix(0.018,0,0,0.018,7.6499999999999995,0)" xlink:href="#O"/><use transform="matrix(0.018,0,0,0.018,13.806,0)" xlink:href="#K"/><use transform="matrix(0.018,0,0,0.018,23.561999999999998,0)" xlink:href="#J"/><use transform="matrix(0.018,0,0,0.018,30.599999999999994,0)" xlink:href="#T"/></g><g id="j"><use transform="matrix(0.018,0,0,0.018,0,0)" xlink:href="#Z"/><use transform="matrix(0.018,0,0,0.018,5.526,0)" xlink:href="#K"/><use transform="matrix(0.018,0,0,0.018,15.281999999999998,0)" xlink:href="#N"/><use transform="matrix(0.018,0,0,0.018,23.651999999999997,0)" xlink:href="#R"/><use transform="matrix(0.018,0,0,0.018,32.327999999999996,0)" xlink:href="#O"/><use transform="matrix(0.018,0,0,0.018,38.483999999999995,0)" xlink:href="#P"/><use transform="matrix(0.018,0,0,0.018,43.88399999999999,0)" xlink:href="#K"/><use transform="matrix(0.018,0,0,0.018,53.63999999999999,0)" xlink:href="#Q"/></g><path fill="#3d4752" d="M28-26c25-12 52-22 76-35l132-190L76-461 6-486v-26h226v26l-52 26c35 51 77 98 106 155 27-55 67-104 99-154l-48-32v-26h204v26l-65 32-143 200L490-53l70 27V0H335v-26l51-28c-34-50-73-95-103-149-26 51-62 98-93 145l47 32V0H28v-26" id="ab"/><path fill="#3d4752" d="M0 125V75h500v50H0" id="ac"/><path fill="#3d4752" d="M144-459c47 125 101 243 139 377 35-130 83-246 123-370l-69-35v-26h210v26l-61 35C419-263 339-36 271 135c-33 87-88 133-212 123v-59c68 6 106-10 127-60 18-42 35-96 50-140L54-459l-64-28v-26h227v26" id="ad"/><g id="k"><use transform="matrix(0.018,0,0,0.018,0,0)" xlink:href="#S"/><use transform="matrix(0.018,0,0,0.018,16.145999999999997,0)" xlink:href="#R"/><use transform="matrix(0.018,0,0,0.018,24.821999999999996,0)" xlink:href="#ab"/><use transform="matrix(0.018,0,0,0.018,34.992,0)" xlink:href="#ac"/><use transform="matrix(0.018,0,0,0.018,43.992,0)" xlink:href="#N"/><use transform="matrix(0.018,0,0,0.018,52.361999999999995,0)" xlink:href="#R"/><use transform="matrix(0.018,0,0,0.018,61.038,0)" xlink:href="#U"/><use transform="matrix(0.018,0,0,0.018,71.514,0)" xlink:href="#R"/><use transform="matrix(0.018,0,0,0.018,80.19,0)" xlink:href="#N"/><use transform="matrix(0.018,0,0,0.018,88.56000000000002,0)" xlink:href="#P"/><use transform="matrix(0.018,0,0,0.018,93.96000000000001,0)" xlink:href="#O"/><use transform="matrix(0.018,0,0,0.018,100.11600000000001,0)" xlink:href="#ad"/></g><path fill="#3d4752" d="M202-63l88 37V0H25v-26l89-37v-566l-89-36v-26h265v26l-88 36v566" id="ae"/><path fill="#3d4752" d="M142-459c43 126 97 241 130 377 35-133 90-247 133-372l-71-34v-26h211v26l-59 33L307 0h-80L53-459l-63-29v-26h225v26" id="af"/><g id="l"><use transform="matrix(0.018,0,0,0.018,0,0)" xlink:href="#ae"/><use transform="matrix(0.018,0,0,0.018,5.67,0)" xlink:href="#Q"/><use transform="matrix(0.018,0,0,0.018,16.668,0)" xlink:href="#af"/><use transform="matrix(0.018,0,0,0.018,26.208,0)" xlink:href="#T"/><use transform="matrix(0.018,0,0,0.018,35.117999999999995,0)" xlink:href="#Q"/><use transform="matrix(0.018,0,0,0.018,46.116,0)" xlink:href="#O"/><use transform="matrix(0.018,0,0,0.018,52.27199999999999,0)" xlink:href="#K"/><use transform="matrix(0.018,0,0,0.018,62.028,0)" xlink:href="#J"/><use transform="matrix(0.018,0,0,0.018,69.282,0)" xlink:href="#ad"/></g><g id="m"><use transform="matrix(0.018,0,0,0.018,0,0)" xlink:href="#ae"/><use transform="matrix(0.018,0,0,0.018,5.67,0)" xlink:href="#O"/><use transform="matrix(0.018,0,0,0.018,11.826,0)" xlink:href="#T"/><use transform="matrix(0.018,0,0,0.018,20.736000000000004,0)" xlink:href="#S"/></g><g id="n"><use transform="matrix(0.018,0,0,0.018,0,0)" xlink:href="#U"/><use transform="matrix(0.018,0,0,0.018,10.475999999999999,0)" xlink:href="#J"/><use transform="matrix(0.018,0,0,0.018,17.514,0)" xlink:href="#K"/><use transform="matrix(0.018,0,0,0.018,27.27,0)" xlink:href="#L"/><use transform="matrix(0.018,0,0,0.018,37.512,0)" xlink:href="#M"/><use transform="matrix(0.018,0,0,0.018,48.059999999999995,0)" xlink:href="#N"/><use transform="matrix(0.018,0,0,0.018,56.42999999999999,0)" xlink:href="#O"/></g><g id="o"><use transform="matrix(0.018,0,0,0.018,0,0)" xlink:href="#V"/><use transform="matrix(0.018,0,0,0.018,7.6499999999999995,0)" xlink:href="#Y"/><use transform="matrix(0.018,0,0,0.018,18.72,0)" xlink:href="#T"/><use transform="matrix(0.018,0,0,0.018,27.63,0)" xlink:href="#Z"/><use transform="matrix(0.018,0,0,0.018,33.156,0)" xlink:href="#aa"/></g><path fill="#3d4752" d="M25-711l178-41v689l94 37V0H31v-26l88-37v-598l-94-27v-23zm276 430L490-56l77 30V0H425L208-260l188-201-69-28v-24h239v24l-102 33" id="ag"/><g id="p"><use transform="matrix(0.018,0,0,0.018,0,0)" xlink:href="#V"/><use transform="matrix(0.018,0,0,0.018,7.6499999999999995,0)" xlink:href="#O"/><use transform="matrix(0.018,0,0,0.018,13.806,0)" xlink:href="#K"/><use transform="matrix(0.018,0,0,0.018,23.561999999999998,0)" xlink:href="#N"/><use transform="matrix(0.018,0,0,0.018,31.931999999999995,0)" xlink:href="#ag"/><use transform="matrix(0.018,0,0,0.018,42.047999999999995,0)" xlink:href="#ac"/><use transform="matrix(0.018,0,0,0.018,51.047999999999995,0)" xlink:href="#N"/><use transform="matrix(0.018,0,0,0.018,59.41799999999999,0)" xlink:href="#K"/><use transform="matrix(0.018,0,0,0.018,69.17399999999999,0)" xlink:href="#M"/><use transform="matrix(0.018,0,0,0.018,79.722,0)" xlink:href="#Q"/><use transform="matrix(0.018,0,0,0.018,90.72,0)" xlink:href="#O"/></g><g id="q"><use transform="matrix(0.018,0,0,0.018,0,0)" xlink:href="#V"/><use transform="matrix(0.018,0,0,0.018,7.6499999999999995,0)" xlink:href="#Y"/><use transform="matrix(0.018,0,0,0.018,18.72,0)" xlink:href="#T"/><use transform="matrix(0.018,0,0,0.018,27.63,0)" xlink:href="#Z"/><use transform="matrix(0.018,0,0,0.018,33.156,0)" xlink:href="#aa"/><use transform="matrix(0.018,0,0,0.018,39.348,0)" xlink:href="#ac"/><use transform="matrix(0.018,0,0,0.018,48.348,0)" xlink:href="#N"/><use transform="matrix(0.018,0,0,0.018,56.717999999999996,0)" xlink:href="#K"/><use transform="matrix(0.018,0,0,0.018,66.47399999999999,0)" xlink:href="#M"/><use transform="matrix(0.018,0,0,0.018,77.02199999999999,0)" xlink:href="#Q"/><use transform="matrix(0.018,0,0,0.018,88.02,0)" xlink:href="#O"/></g><path fill="#333" d="M270-703c81-2 142 16 187 48v159h-26l-44-113c-29-15-58-27-110-26-74 3-130 32-130 106 0 126 160 125 239 187 44 35 87 78 84 156C466-56 380 8 250 11 165 13 102-9 55-43v-156h26l41 115c30 18 67 27 121 25 77-3 137-36 137-115 0-130-158-131-238-194-44-35-87-78-84-158 5-120 91-174 212-177" id="ah"/><path fill="#333" d="M337-34c-33 20-79 45-128 45-81 1-119-46-119-127v-315H4v-37l87-30v-131l83-30v161h145v67H173v306c1 40 13 70 55 70 28 0 64-17 80-30" id="ai"/><path fill="#333" d="M276-509c158 0 231 103 231 260 0 153-81 260-233 260C115 11 35-90 35-249c0-153 87-260 241-260zm-1 459c107 0 145-91 145-199s-37-199-145-199-153 91-153 199c0 109 43 199 153 199" id="aj"/><path fill="#333" d="M316-434c-70 6-120 46-120 120v251l106 37V0H25v-26l88-36v-362l-92-27v-23l175-41v104c31-55 97-121 183-88v151h-26" id="ak"/><path fill="#333" d="M252-509c149 0 208 103 203 259H117c-1 108 29 194 135 194 63 0 113-26 147-60l44 43c-48 46-97 84-184 84C102 11 35-91 35-248c0-147 71-261 217-261zm126 200c19-124-147-176-220-93-20 23-30 59-37 93h257" id="al"/><g id="r"><use transform="matrix(0.018,0,0,0.018,0,0)" xlink:href="#ah"/><use transform="matrix(0.018,0,0,0.018,9.45,0)" xlink:href="#ai"/><use transform="matrix(0.018,0,0,0.018,15.605999999999998,0)" xlink:href="#aj"/><use transform="matrix(0.018,0,0,0.018,25.361999999999995,0)" xlink:href="#ak"/><use transform="matrix(0.018,0,0,0.018,32.39999999999999,0)" xlink:href="#al"/></g><path fill="#333" d="M25-481l177-41v459l83 37V0H31v-26l88-37v-368l-94-27v-23zm200-200c0 37-21 56-62 56-42 0-63-18-63-54 0-37 21-55 63-55 41 0 62 18 62 53" id="am"/><path fill="#333" d="M255-509c65 0 107 14 141 47v-197l-94-28v-22c58-14 117-27 174-42v677l83 26v22L396 15c0-21-1-54 0-79-36 39-79 75-151 75C100 11 35-86 35-231c0-155 64-278 220-278zm141 125c-22-39-80-64-135-64-109 0-139 105-139 215 0 100 41 183 141 183 70 0 104-49 133-95v-239" id="an"/><g id="s"><use transform="matrix(0.018,0,0,0.018,0,0)" xlink:href="#am"/><use transform="matrix(0.018,0,0,0.018,5.3999999999999995,0)" xlink:href="#an"/></g><path fill="#333" d="M338-438c-74 0-103 54-140 95v280l78 37V0H26v-26l88-37v-360l-93-27v-23l177-41v91c34-39 85-86 153-86 100 1 162 43 162 145v301l88 37V0H346v-26l83-37v-298c-1-54-38-77-91-77" id="ao"/><path fill="#333" d="M233-514c87 3 156 45 156 132v302l83 27v23L310 12v-71c-35 38-70 69-138 70C85 12 27-46 30-134c4-141 149-158 281-173-1-16 1-41 0-60-1-92-140-105-204-56l-36 86H45c1-38-1-78 1-114 49-38 100-66 187-63zm77 261c-95 7-197 18-199 118-1 55 31 89 86 87 57-2 84-40 113-72v-133" id="ap"/><path fill="#333" d="M330-441c-71 2-99 56-135 95v283l83 37V0H27v-26l87-36v-361l-93-27v-23l174-41v90c37-40 87-85 159-85 64 1 125 34 134 93 42-42 86-91 165-93 99-3 146 54 145 151v295l89 37V0H632v-26l82-36v-300c1-48-32-81-80-79-71 4-99 57-137 97l1 281 83 37V0H338v-26l76-36v-299c1-48-37-82-84-80" id="aq"/><g id="t"><use transform="matrix(0.018,0,0,0.018,0,0)" xlink:href="#ao"/><use transform="matrix(0.018,0,0,0.018,10.998,0)" xlink:href="#ap"/><use transform="matrix(0.018,0,0,0.018,19.674,0)" xlink:href="#aq"/><use transform="matrix(0.018,0,0,0.018,35.81999999999999,0)" xlink:href="#al"/></g><path fill="#333" d="M229-509c47 0 105 15 135 34v127h-26l-37-86c-64-27-173-19-165 61 8 84 122 76 177 120 33 26 64 57 62 116-3 100-76 148-174 148C136 11 92-5 50-31v-127h26l36 87c55 34 183 31 177-55-7-93-117-87-177-128-34-23-63-52-61-109 3-102 78-146 178-146" id="ar"/><g id="u"><use transform="matrix(0.018,0,0,0.018,0,0)" xlink:href="#ap"/><use transform="matrix(0.018,0,0,0.018,8.676,0)" xlink:href="#an"/><use transform="matrix(0.018,0,0,0.018,18.918,0)" xlink:href="#an"/><use transform="matrix(0.018,0,0,0.018,29.159999999999997,0)" xlink:href="#ak"/><use transform="matrix(0.018,0,0,0.018,36.19799999999999,0)" xlink:href="#al"/><use transform="matrix(0.018,0,0,0.018,45.10799999999999,0)" xlink:href="#ar"/><use transform="matrix(0.018,0,0,0.018,52.75799999999999,0)" xlink:href="#ar"/></g><path fill="#333" d="M25-711l178-41v689l94 37V0H31v-26l88-37v-598l-94-27v-23" id="as"/><path fill="#333" d="M173-486c82-41 198-28 258 29v121h-26l-37-87c-26-17-56-25-95-25-109 0-151 95-151 205 0 107 52 191 158 191 55 0 83-24 113-54l47 42c-40 40-91 76-173 75C110 8 35-93 35-243c0-118 57-202 138-243" id="at"/><g id="v"><use transform="matrix(0.018,0,0,0.018,0,0)" xlink:href="#as"/><use transform="matrix(0.018,0,0,0.018,5.526,0)" xlink:href="#aj"/><use transform="matrix(0.018,0,0,0.018,15.281999999999998,0)" xlink:href="#at"/><use transform="matrix(0.018,0,0,0.018,23.651999999999997,0)" xlink:href="#ap"/><use transform="matrix(0.018,0,0,0.018,32.327999999999996,0)" xlink:href="#ai"/><use transform="matrix(0.018,0,0,0.018,38.483999999999995,0)" xlink:href="#am"/><use transform="matrix(0.018,0,0,0.018,43.88399999999999,0)" xlink:href="#aj"/><use transform="matrix(0.018,0,0,0.018,53.63999999999999,0)" xlink:href="#ao"/></g><path fill="#333" d="M72-63c-8 23 5 39 32 30L98-1C54 14 12-6 23-64l18-93H15l7-33h28l24-45h31l-8 45h35l-6 33H90" id="au"/><path fill="#333" d="M114-194c63-2 87 48 72 110H63c-3 28 1 55 31 54 21-1 32-13 37-29l44 13C160-14 137 4 91 4 41 4 11-22 11-73c0-71 33-119 103-121zm30 77c14-47-50-61-67-22-3 6-6 13-8 22h75" id="av"/><path fill="#333" d="M255-194c90 0 29 129 24 194h-49l25-136c-7-39-53-14-60 9-12 38-18 85-28 127h-49l25-136c2-29-39-23-50-7C69-108 68-47 56 0H6l36-190h48c-1 10-6 24-4 32 12-20 27-36 57-36s46 15 50 41c14-21 29-41 62-41" id="aw"/><path fill="#333" d="M156-122c2-23-7-37-28-37-47 0-58 44-58 89 0 24 12 40 36 40 43 0 47-49 50-92zM-8 75l50-265h48c0 10-3 24-3 30 22-50 127-45 121 29-6 73-21 135-92 135-29 0-46-14-55-35L41 75H-8" id="ax"/><path fill="#333" d="M84-151c13-25 34-51 72-40l-8 41C67-170 71-64 56 0H6l36-190h47" id="ay"/><path fill="#333" d="M166-52c-4 17 5 29 24 23l-3 27c-30 11-74 1-67-34C105-15 91 4 56 4 23 4 3-15 2-49c0-64 63-67 128-67 10-22 3-53-29-45-13 3-22 10-25 24l-46-5c5-64 156-77 153 0-1 33-11 60-17 90zM97-88c-44-9-64 57-19 57 31 0 42-28 47-57H97" id="az"/><path fill="#333" d="M69 3c-96 0-34-126-28-193h49L65-57c6 42 62 18 71-6 14-38 17-86 28-127h50L178 0h-47c0-11 4-26 3-33-14 20-30 37-65 36" id="aA"/><g id="x"><use transform="matrix(0.05,0,0,0.05,0,0)" xlink:href="#au"/><use transform="matrix(0.05,0,0,0.05,5.95,0)" xlink:href="#av"/><use transform="matrix(0.05,0,0,0.05,15.949999999999998,0)" xlink:href="#aw"/><use transform="matrix(0.05,0,0,0.05,31.950000000000003,0)" xlink:href="#ax"/><use transform="matrix(0.05,0,0,0.05,42.9,0)" xlink:href="#av"/><use transform="matrix(0.05,0,0,0.05,52.900000000000006,0)" xlink:href="#ay"/><use transform="matrix(0.05,0,0,0.05,59.900000000000006,0)" xlink:href="#az"/><use transform="matrix(0.05,0,0,0.05,69.9,0)" xlink:href="#au"/><use transform="matrix(0.05,0,0,0.05,75.85000000000001,0)" xlink:href="#aA"/><use transform="matrix(0.05,0,0,0.05,86.80000000000001,0)" xlink:href="#ay"/><use transform="matrix(0.05,0,0,0.05,93.80000000000001,0)" xlink:href="#av"/></g><path fill="#333" d="M6 0l51-261h49L55 0H6" id="aB"/><path fill="#333" d="M50-224l7-37h49l-7 37H50zM6 0l37-190h49L55 0H6" id="aC"/><path fill="#333" d="M109 0H50L19-190h51L86-37l77-153h54" id="aD"/><path fill="#333" d="M168 0l21-106H79L58 0H6l48-248h52l-19 99h110l19-99h50L218 0h-50" id="aE"/><path fill="#333" d="M132-28C118-9 101 4 69 4 30 4 10-23 10-62c0-70 24-129 92-132 31-1 47 14 56 35l19-102h49L179 0h-49zM62-69c0 22 7 39 29 39 45-2 54-45 57-90 2-27-10-40-33-40-44 0-53 48-53 91" id="aF"/><path fill="#333" d="M100 10C77 47 50 87-15 72l7-35c37 9 51-18 65-41L20-190h51L89-44l73-146h53" id="aG"/><g id="y"><use transform="matrix(0.05,0,0,0.05,0,0)" xlink:href="#ay"/><use transform="matrix(0.05,0,0,0.05,7,0)" xlink:href="#av"/><use transform="matrix(0.05,0,0,0.05,17,0)" xlink:href="#aB"/><use transform="matrix(0.05,0,0,0.05,22,0)" xlink:href="#az"/><use transform="matrix(0.05,0,0,0.05,32,0)" xlink:href="#au"/><use transform="matrix(0.05,0,0,0.05,37.95,0)" xlink:href="#aC"/><use transform="matrix(0.05,0,0,0.05,42.95,0)" xlink:href="#aD"/><use transform="matrix(0.05,0,0,0.05,52.95,0)" xlink:href="#av"/><use transform="matrix(0.05,0,0,0.05,62.95,0)" xlink:href="#aE"/><use transform="matrix(0.05,0,0,0.05,75.9,0)" xlink:href="#aA"/><use transform="matrix(0.05,0,0,0.05,86.85000000000001,0)" xlink:href="#aw"/><use transform="matrix(0.05,0,0,0.05,102.85000000000001,0)" xlink:href="#aC"/><use transform="matrix(0.05,0,0,0.05,107.85000000000001,0)" xlink:href="#aF"/><use transform="matrix(0.05,0,0,0.05,118.80000000000001,0)" xlink:href="#aC"/><use transform="matrix(0.05,0,0,0.05,123.80000000000001,0)" xlink:href="#au"/><use transform="matrix(0.05,0,0,0.05,129.75,0)" xlink:href="#aG"/></g><path fill="#333" d="M212 0h-52l-8-156L82 0H30L17-190h46l2 145 66-145h53l8 145 60-145h47" id="aH"/><path fill="#333" d="M144-137c-1-29-70-35-71-2 16 41 103 10 103 80C176 9 79 16 32-9 18-17 9-31 4-48l44-6c3 32 80 36 82 1-15-42-103-11-103-82 0-77 157-79 161-8" id="aI"/><g id="z"><use transform="matrix(0.05,0,0,0.05,0,0)" xlink:href="#au"/><use transform="matrix(0.05,0,0,0.05,5.95,0)" xlink:href="#aH"/><use transform="matrix(0.05,0,0,0.05,19.95,0)" xlink:href="#av"/><use transform="matrix(0.05,0,0,0.05,29.950000000000003,0)" xlink:href="#av"/><use transform="matrix(0.05,0,0,0.05,39.95,0)" xlink:href="#au"/><use transform="matrix(0.05,0,0,0.05,45.900000000000006,0)" xlink:href="#aI"/></g></defs></g></svg>